<?xml version="1.0" encoding="UTF-8"?>
<!DOCTYPE svg PUBLIC "-//W3C//DTD SVG 1.1//EN" "http://www.w3.org/Graphics/SVG/1.1/DTD/svg11.dtd">
<!-- Creator: CorelDRAW 2017 -->
<svg xmlns="http://www.w3.org/2000/svg" xml:space="preserve" width="613px" height="596px" version="1.1" style="shape-rendering:geometricPrecision; text-rendering:geometricPrecision; image-rendering:optimizeQuality; fill-rule:evenodd; clip-rule:evenodd"
viewBox="0 0 556.88 540.94"
 xmlns:xlink="http://www.w3.org/1999/xlink">
 <defs>
  <style type="text/css">
   <![CDATA[
    .fil0 {fill:#A8518A}
   ]]>
  </style>
 </defs>
 <g id="Camada_x0020_1">
  <metadata id="CorelCorpID_0Corel-Layer"/>
  <g>
   <path class="fil0" d="M524.59 196.75c17.83,0 32.29,14.58 32.29,32.58 0,17.99 -14.46,32.57 -32.29,32.57 -17.83,0 -32.29,-14.58 -32.29,-32.57 0,-18 14.46,-32.58 32.29,-32.58zm-72.7 -132.69c-8.05,-11.3 -32.16,-19.6 -42.38,-18.99 32.88,13.44 82.2,150.39 3.29,167.21 -5.36,1.14 -10.53,1.49 -15.94,2.11 -57,6.61 -98.32,30.44 -147.9,69.54 -15.09,11.9 -107.93,92.8 -114.11,99.57 60.37,-36.52 133.33,-72.71 193.14,-101.07 -53.42,34.52 -110.52,70.92 -170.2,103.87 -0.51,0.28 -1.03,0.57 -1.55,0.86 0.64,-0.23 1.29,-0.46 1.92,-0.68 94.74,-33.18 189.4,-70.2 274.96,-117.17 0.78,-0.42 1.48,-0.82 2.31,-1.14 42.68,-17.14 -4.59,120.57 66.46,129.45 -5.96,-6.94 -10.99,-14.73 -14.83,-23.59 -8.72,-20.25 -9.73,-130.47 -8.94,-157.49 1.72,-59.63 -1.2,-115.62 -26.23,-152.48l0 0zm56.12 355.67c-49.59,73.04 -134.55,121.21 -231.03,121.21 -152.97,0 -276.98,-121.09 -276.98,-270.47 0,-149.38 124.01,-270.47 276.98,-270.47 43.41,0 84.48,9.75 121.05,27.13l109.98 392.6zm0 0c-45.72,67.34 -143.86,100.12 -232.82,100.12 -141.05,0 -255.39,-111.65 -255.39,-249.38 0,-193.83 246.5,-305.93 378.23,-243.34l109.98 392.6z"/>
  </g>
 </g>
</svg>
